#!OML:ASF H:\Pregnant\Project 1\Capture day 1\Session 1\femalepreg.ASF
:FULLY-SPECIFIED
:DEGREES
423
root 6.9306 15.9076 19.3431 -158.192 -5.20619 -176.407
lowerback -14.3861 4.61642 3.29484
upperback -9.02165 4.43625 -1.25142
thorax -1.11736 1.49055 -2.54993
lowerneck -6.36855 20.3783 18.4423
upperneck 7.18545 27.6435 -16.623
head 8.08755 13.0514 -4.53258
rclavicle 6.54747e-015 -3.97569e-016
rhumerus -35.1524 13.7248 -92.1289
rradius 77.6269
rwrist -60.157
rhand -36.7657 -63.5721
rfingers 7.12502
rthumb -9.84859 93.3218
lclavicle 6.54747e-015 -3.97569e-016
lhumerus -28.7527 -46.1214 98.3277
lradius 68.46
lwrist 82.5672
lhand -48.5092 27.0755
lfingers 7.12502
lthumb -21.1576 55.941
rfemur -29.4826 18.4746 14.6292
rtibia 21.6009
rfoot -11.3689 -22.8391
rtoes -5.20089
lfemur -33.5804 -8.84518 -12.5127
ltibia 24.495
lfoot -9.66362 13.9486
ltoes -18.7117
424
root 6.93134 15.906 19.3286 -158.404 -5.50946 -176.413
lowerback -14.5048 4.61882 3.3577
upperback -9.0175 4.4259 -1.26432
thorax -1.04566 1.48344 -2.59345
lowerneck -5.98871 20.3988 18.4982
upperneck 7.2145 27.7142 -16.5462
head 8.04185 13.1146 -4.53627
rclavicle 4.72114e-016 1.19271e-015
rhumerus -35.2792 13.5522 -92.2066
rradius 77.5607
rwrist -60.3512
rhand -36.7847 -63.741
rfingers 7.12502
rthumb -9.86692 93.4898
lclavicle 4.72114e-016 1.19271e-015
lhumerus -28.7191 -46.3457 98.3346
lradius 68.1674
lwrist 82.6753
lhand -48.4022 27.1934
lfingers 7.12502
lthumb -21.0548 56.0704
rfemur -29.0498 18.231 14.8529
rtibia 21.5121
rfoot -11.2101 -22.9406
rtoes -6.16315
lfemur -33.3519 -8.88 -12.544
ltibia 24.4666
lfoot -9.71493 13.6747
ltoes -18.8064
425
root 6.93252 15.9051 19.3147 -158.616 -5.82097 -176.401
lowerback -14.6153 4.62161 3.43949
upperback -9.00544 4.41592 -1.27023
thorax -0.96904 1.4771 -2.64045
lowerneck -5.64254 20.4214 18.5325
upperneck 7.24457 27.7837 -16.4612
head 7.99743 13.1749 -4.53283
rclavicle 2.02512e-014 -1.86858e-014
rhumerus -35.3822 13.3855 -92.2695
rradius 77.4941
rwrist -60.5443
rhand -36.7593 -63.8181
rfingers 7.12502
rthumb -9.84247 93.568
lclavicle 2.02512e-014 -1.86858e-014
lhumerus -28.6601 -46.5715 98.329
lradius 67.8702
lwrist 82.7767
lhand -48.3081 27.3188
lfingers 7.12502
lthumb -20.9644 56.2058
rfemur -28.6067 17.994 15.0997
rtibia 21.398
rfoot -11.0386 -23.0859
rtoes -6.98492
lfemur -33.1364 -8.8796 -12.5633
ltibia 24.448
lfoot -9.76258 13.3616
ltoes -18.9029
426
root 6.93419 15.9045 19.3014 -158.826 -6.14177 -176.372
lowerback -14.7186 4.6263 3.53888
upperback -8.99274 4.4069 -1.2712
thorax -0.894739 1.47094 -2.69241
lowerneck -5.30401 20.4351 18.5744
upperneck 7.27296 27.8405 -16.3872
head 7.95457 13.228 -4.53574
rclavicle 2.49475e-014 -1.98785e-015
rhumerus -35.4795 13.2225 -92.3232
rradius 77.4254
rwrist -60.7436
rhand -36.7558 -63.984
rfingers 7.12502
rthumb -9.83905 93.7341
lclavicle 2.49475e-014 -1.98785e-015
lhumerus -28.5974 -46.7984 98.3255
lradius 67.5667
lwrist 82.862
lhand -48.1969 27.4859
lfingers 7.12502
lthumb -20.8576 56.3847
rfemur -28.158 17.7873 15.3583
rtibia 21.2601
rfoot -10.8561 -23.2824
rtoes -7.67263
lfemur -32.9363 -8.86276 -12.5658
ltibia 24.4388
lfoot -9.8036 13.03
ltoes -19.0002
427
root 6.93623 15.9043 19.2886 -159.032 -6.46954 -176.334
lowerback -14.81 4.63792 3.6556
upperback -8.96265 4.40968 -1.27773
thorax -0.805763 1.47252 -2.75827
lowerneck -5.08074 20.4483 18.5889
upperneck 7.3347 27.8839 -16.2968
head 7.93265 13.2668 -4.52206
rclavicle 6.19711e-014 2.70347e-014
rhumerus -35.5301 13.0375 -92.3507
rradius 77.3612
rwrist -60.9558
rhand -36.7292 -64.2135
rfingers 7.12502
rthumb -9.81341 93.9648
lclavicle 6.19711e-014 2.70347e-014
lhumerus -28.4748 -47.0584 98.2873
lradius 67.2555
lwrist 82.9374
lhand -48.0593 27.6985
lfingers 7.12502
lthumb -20.7254 56.6118
rfemur -27.7099 17.6238 15.6144
rtibia 21.1061
rfoot -10.6775 -23.5265
rtoes -8.18274
lfemur -32.7498 -8.85075 -12.5535
ltibia 24.4347
lfoot -9.83295 12.703
ltoes -19.1009
428
root 6.93867 15.9042 19.2763 -159.228 -6.80373 -176.294
lowerback -14.8912 4.65747 3.7826
upperback -8.91846 4.42573 -1.29542
thorax -0.704612 1.48236 -2.83971
lowerneck -4.98632 20.4609 18.5777
upperneck 7.43807 27.9119 -16.1869
head 7.93593 13.2898 -4.48962
rclavicle -3.77194e-014 1.19271e-014
rhumerus -35.5342 12.8245 -92.3557
rradius 77.2944
rwrist -61.1802
rhand -36.7086 -64.5388
rfingers 7.12502
rthumb -9.79347 94.291
lclavicle -3.77194e-014 1.19271e-014
lhumerus -28.2891 -47.3597 98.2109
lradius 66.9332
lwrist 83.0075
lhand -47.8781 27.9633
lfingers 7.12502
lthumb -20.5513 56.8955
rfemur -27.274 17.5075 15.8552
rtibia 20.9446
rfoot -10.5114 -23.8147
rtoes -8.52356
lfemur -32.5816 -8.84916 -12.5319
ltibia 24.4308
lfoot -9.85142 12.3831
ltoes -19.1916
429
root 6.94171 15.9043 19.2644 -159.408 -7.1403 -176.263
lowerback -14.9734 4.67959 3.89844
upperback -8.88725 4.44382 -1.31827
thorax -0.61703 1.49202 -2.92031
lowerneck -4.9057 20.4613 18.5841
upperneck 7.57302 27.9229 -16.0746
head 7.95118 13.3035 -4.45953
rclavicle -5.24295e-015 -2.50469e-014
rhumerus -35.5567 12.6053 -92.3568
rradius 77.2324
rwrist -61.4325
rhand -36.6881 -64.8932
rfingers 7.12502
rthumb -9.77376 94.6464
lclavicle -5.24295e-015 -2.50469e-014
lhumerus -28.1335 -47.6576 98.1565
lradius 66.6033
lwrist 83.0787
lhand -47.6183 28.2121
lfingers 7.12502
lthumb -20.3016 57.1711
rfemur -26.8608 17.4466 16.0649
rtibia 20.7861
rfoot -10.3687 -24.1506
rtoes -8.70711
lfemur -32.4321 -8.85506 -12.5129
ltibia 24.421
lfoot -9.85733 12.067
ltoes -19.2819
430
root 6.94515 15.9045 19.2525 -159.576 -7.48207 -176.243
lowerback -15.0544 4.7019 4.00398
upperback -8.85932 4.46294 -1.34739
thorax -0.533679 1.5022 -3.0017
lowerneck -4.86836 20.4611 18.577
upperneck 7.74012 27.9273 -15.9336
head 7.97633 13.3122 -4.41604
rclavicle -5.09386e-014 -1.39149e-014
rhumerus -35.578 12.38 -92.3502
rradius 77.1715
rwrist -61.7223
rhand -36.4063 -66.5668
rfingers 7.12502
rthumb -9.50179 96.3325
lclavicle -5.09386e-014 -1.39149e-014
lhumerus -27.9794 -47.9591 98.1038
lradius 66.2668
lwrist 83.1582
lhand -47.2977 28.414
lfingers 7.12502
lthumb -19.9935 57.4055
rfemur -26.4664 17.4319 16.2447
rtibia 20.6352
rfoot -10.2559 -24.5274
rtoes -8.77254
lfemur -32.297 -8.87017 -12.5
ltibia 24.4048
lfoot -9.85408 11.7523
ltoes -19.3676
431
root 6.94908 15.9046 19.2407 -159.724 -7.81942 -176.235
lowerback -15.1572 4.72334 4.08786
upperback -8.84211 4.4791 -1.37504
thorax -0.452147 1.51006 -3.06906
lowerneck -4.81605 20.4535 18.5811
upperneck 7.92907 27.9236 -15.7849
head 8.00536 13.3181 -4.37392
rclavicle 2.31087e-015 3.73715e-014
rhumerus -35.6227 12.1664 -92.3403
rradius 77.1173
rwrist -62.0536
rhand -35.921 -69.0157
rfingers 7.12502
rthumb -9.03354 98.8023
lclavicle 2.31087e-015 3.73715e-014
lhumerus -27.8524 -48.2417 98.0742
lradius 65.9262
lwrist 83.2573
lhand -46.9548 28.5871
lfingers 7.12502
lthumb -19.6638 57.6126
rfemur -26.1017 17.46 16.391
rtibia 20.4926
rfoot -10.1702 -24.931
rtoes -8.76132
lfemur -32.1813 -8.88611 -12.4947
ltibia 24.384
lfoot -9.84627 11.4377
ltoes -19.4488
432
root 6.95351 15.9047 19.229 -159.864 -8.14917 -176.229
lowerback -15.2725 4.74309 4.15644
upperback -8.83231 4.49179 -1.39536
thorax -0.373881 1.51571 -3.12029
lowerneck -4.73857 20.4395 18.5976
upperneck 8.13059 27.9146 -15.6343
head 8.03516 13.3231 -4.33567
rclavicle 2.43511e-014 1.51076e-014
rhumerus -35.6927 11.9722 -92.3281
rradius 77.0717
rwrist -62.4326
rhand -35.2784 -72.1708
rfingers 7.12502
rthumb -8.41349 101.983
lclavicle 2.43511e-014 1.51076e-014
lhumerus -27.7588 -48.4935 98.0713
lradius 65.5807
lwrist 83.3602
lhand -46.6036 28.766
lfingers 7.12502
lthumb -19.3262 57.8256
rfemur -25.7497 17.5261 16.5206
rtibia 20.3527
rfoot -10.1032 -25.3496
rtoes -8.72034
lfemur -32.0739 -8.88979 -12.4922
ltibia 24.3658
lfoot -9.8405 11.1162
ltoes -19.5283
